<svg xmlns="http://www.w3.org/2000/svg" width="24.07" height="24.07" viewBox="0 0 24.07 24.07">
  <g id="whatsapp_733585" transform="translate(139.555 129.09)">
    <path id="Path_6" data-name="Path 6" d="M12.038,0h-.006A12.028,12.028,0,0,0,2.291,19.089L.791,23.56l4.626-1.479A12.033,12.033,0,1,0,12.038,0Z" transform="translate(-139.555 -129.09)" fill="#4caf50"/>
    <path id="Path_7" data-name="Path 7" d="M122.978,130.943a3.843,3.843,0,0,1-2.651,2.048c-.706.161-1.628.29-4.732-1.092-3.97-1.767-6.527-6.1-6.726-6.382a8.618,8.618,0,0,1-1.6-4.377,4.781,4.781,0,0,1,1.381-3.532,1.883,1.883,0,0,1,1.381-.521c.167,0,.317.009.453.016.4.018.6.044.858.717.326.844,1.12,2.926,1.214,3.14a.92.92,0,0,1,.057.785,2.516,2.516,0,0,1-.437.666c-.2.247-.388.435-.588.7a.715.715,0,0,0-.159.9,12.789,12.789,0,0,0,2.192,2.926,9.81,9.81,0,0,0,3.168,2.1.81.81,0,0,0,.952-.161,17.5,17.5,0,0,0,1.055-1.5.726.726,0,0,1,.969-.316c.365.136,2.3,1.161,2.692,1.373s.659.316.755.5A3.865,3.865,0,0,1,122.978,130.943Z" transform="translate(-242.684 -242.178)" fill="#fafafa"/>
  </g>
</svg>
